<mxfile host="app.diagrams.net" agent="Mozilla/5.0 (Windows NT 10.0; Win64; x64) AppleWebKit/537.36 (KHTML, like Gecko) Chrome/133.0.0.0 Safari/537.36 Edg/133.0.0.0" version="26.0.15">
  <diagram name="Page-1" id="ZgzycjiEpXoz0qQcD2Xt">
    <mxGraphModel dx="485" dy="1875" grid="0" gridSize="10" guides="1" tooltips="1" connect="1" arrows="1" fold="1" page="0" pageScale="1" pageWidth="850" pageHeight="1100" math="0" shadow="0">
      <root>
        <mxCell id="0" />
        <mxCell id="1" parent="0" />
        <mxCell id="DjG8kCXdjbpDMHFH3Mug-2" value="" style="ellipse;whiteSpace=wrap;html=1;aspect=fixed;" vertex="1" parent="1">
          <mxGeometry x="907.78" y="-48" width="275" height="275" as="geometry" />
        </mxCell>
        <mxCell id="DjG8kCXdjbpDMHFH3Mug-1" value="" style="shape=image;verticalLabelPosition=bottom;labelBackgroundColor=default;verticalAlign=top;aspect=fixed;imageAspect=0;image=data:image/png,iVBORw0KGgoAAAANSUhEUgAAAa4AAADjCAIAAABSJmfLAAAgAElEQVR4Aey9Z3gc5dk2zM/3z/cd3483ecBFsmTJlrtxxWA62AFj03EooYYaaoDQe6gmECAhGEzvmBJg+6pr1XvvvU3vvex+ueeWVuvVarUyluEht4497NFqd+aec6455+rXMRH0gxBACCAE/usROOa/HgEEAEIAIYAQiCAqREKAEEAIIAQQFSIZQAggBBACEUSFSAgQAggBhACiQiQDCAGEAEIggqgQCQFCACGAEEBUiGQAIYAQQAgABFAEGckBQgAhgBBAVIhkACGAEEAIIK0QyQBCACGAEEAGMpIBhABCACEAEEC+QiQHCAGEAEIAUSGSAYQAQgAhgLRCJAMIAYQAQgAZyEgGEAIIAYQAQAD5CpEcIAQQAggBRIVIBhACCAGEANIKkQwgBBACCAFkICMZQAggBBACAAHkK0RygBBACCAEEBUiGUAIIAQQAkgrRDKAEEAIIASQgYxkACGAEEAIAASQrxDJAUIAIYAQQFSIZAAhgBBACCCtEMkAQgAhgBBABjKSAYQAQgAhABBAvkIkBwgBhABCAFEhkgGEAEIAIYC0QiQDCAGEAEIAGchIBhACCAGEAEAA+QqRHCAEEAIIAUSFSAYQAggBhADSCpEMIAQQAggBZCAjGUAIIAQQAgAB5CtEcoAQQAggBBAVIhlACCAEEAJIK0QygBBACCAEkIGMZAAhgBBACAAEkK8QyQFCACGAEEBUiGQAIYAQQAggrRDJAEIAIYAQQAYykgGEAEIAIQAQQL5CJAcIAYQAQgBRIZIBhABCACGAtEIkAwgBhABCABnISAYQAggBhABAAPkKkRwgBBACCAFEhUgGEAIIAYQA0gqRDCAEEAIIAWQgIxlACCAEEAIAAeQrRHKAEEAIIAQQFSIZQAggBBACSCtEMoAQQAggBJCBjGQAIYAQQAgABJCvEMkBQgAhgBBAVIhkACGAEEAIIK0QyQBCACGAEEAGMpIBhABCACEAEEC+QiQHCAGEAEIAUSGSAYQAQgAhgLRCJAMIAYQAQgAZyEgGEAIIAYQAQAD5CpEcIAQQAggBRIVIBhACCAGEANIKkQwgBBACCAFkICMZQAggBBACAAHkK0RygBBACCAEEBUiGUAIIAQQAkgrRDKAEEAIIASQgYxkACGAEEAIAASQrxDJAUIAIYAQQFSIZAAhgBBACCCtEMkAQgAhgBBABjKSAYQAQgAhABA4Or7CcDgc1k1LNUzVMDXTMu3wnOAPRyLhSMS0bbgH3dlDODy3nczpiOjDCAGEwH8VAkeJCk3bIkRlmBNHOAmXVFE354RyOBKxIxFeM4Y5cZgTCUkVDXOufDqnI6IPIwQQAv9VCMwvFdrhsGTYjYz+YZ/8eBN7Vy19Vx3zYD3zVpdQQmiUnpJyKJv2iGR8M6w81ybcUcvcUcs80Mi90CZ6xrR+yXRIEqmH/1VCi04WIXDkEZhHKrTDYdGwqyjt5XZxVzGz0kcscuEL3US2Gzu7gHywkc/HNUKzHNs3MZcBs9qyWzj9w37pinJmXYBc4AavTA+5IUDeXMN/NaRgiqFb9pEHBu0RIYAQ+G9CYB6pULfsbkG/o47dECTS3Xi2G1vuwpa7sRw3ttSN5wSom6tY76iSRK0z7TAuG690SUuDdJqHyHC+DveQ48aWeMjfl7Nf9YmYMjdz+7/p+qJzRQggBFJCYB6pcFwyXIPC+SVUlgdf6gI8uMI98cp2Y1keYls+/WKHhKuWZiXWCiXTLsDU22q549zEEheeHbOHHDeW6ca355G3VrO1lKqaVkqniz6EEEAIIAQSITBPVAhCvs20+lITc2IusSSGwqJsuMyNLfSQN9UJjawpGAks3HAkQmn2G13SrmI6zYUtS7STHA++KZf6cUhiVCPR2aH3EAIIAYRASgjMHxXaxbh2azW3PkDORIUL3OSVVXwBplNaAiq0I5ER1bq7nt8SJHNcWE4iKlzixjN91Afd/LCgpXS66EMIAYQAQiARAvNIhXmYem0Ft9afjAovr+ACowqpJjBvIRXeUc9vChBRXTJuY4kbX+Kj3u/mhxAVJrq66D2EAEIgRQTmkQqD4+qV5dzqpFS4t5z1DUsEosIULxf6GEIAITA/CCAqnB9c0V4RAgiB/1UIICr8X3W50GIRAgiB+UEgRSp0ioitsGKGJdPWLHu2ojdQKfdLMpBBRNuwwzJYf1i1QPVy4vyd+UEZ7RUhgBD4hSOQKhVatkWqZr9odvDGqKgJsxQR/wKp0GZ1q1uw2nlzRLFgjcsv/Nqg5SEEEAJHDYFZqDAcDmuW3c4bXw4qL7SJ9zcJtzcIjzTxb3aJgTF1VDZVM0EejKNy/RK0QqD8cbrVxZtfD8nPtYu3N4q3NYgPNIuvdUklhD4iJ4hcHzXo0YEQAgiBXw4CyagwHImoVriF1d/ukS4tZbcEyWwfmeYlV/rIMwuoP1Wznw/INbSOK5ZuxzXM+vm1QhOYw/aAZORh6j+7pL1lzPogucgLXlk+clsu8UCj8P2Ixui2kVJTiF/OJUMr+V+BAHgMm7atWxMvw7KdtnLxjplwJGLZYadznZ2kHv9nOmfnLCxbMy3DtuPv8p9pTfN02GRUaEcimGY/0SKeXUQvcePR4t8VbizbjS314JtzqVur2e8GJFKL64jw81OhoFtdnLavTdxTwmR58XQ3nuEGFdDwLMApePCrKtkCHLDhPIGLdvtfjAC4BQTdwCUNvhhVt8MJHDN2JCKb5igvCZqWpB7/Z0ISnAWnqiOcxGpG/F3+M61png6bjAopzc7H9Z1lXJaPjCsiXubClrqwFR5QBXx5Oftsm/jvYbmPU2Uj2mnm5zGQTTssGFYpJr/ZJdzewO8sptf7iUwXlunCDilhdmFZLuzUfPKBRr6VM5BiOE/i9d+2WzscVk2rg1F9w+LH/fIrHeITzTx8vd4phDBlXJ5qHWI73qdiQnu1Q7i/nn6rW6ikdAV4nOI1x58LRtGwKnFpfyf3QD3z9w6hjNQ0C0RQf671zOtxZ6JCoBi38+ZrnXJWLvMb14z1HplufLGb3BAkry2n3+niy0l1VDEVK2yFjzYV2uEwo9ntnBEYVx6uo88sIBZ5ycVuPDNRxR6sWlnlwU/Mp/JxTUrs8ZxX5NHOf20IaFZ4XLFKCPUf7ewt5cSuYnpbLrXGR67xkat85Cn51AP1XCkxVSGqWvaYbDzXJmzNJTPd+I4iel+7OKaYlv2LMFNMOzwoGi82MbsKiSxH6Xm1QxyRzV+r3pCECu1SQr2rhl3lJ9JnZpMcp+mWY28SKwLUFeXce71Kv2QppnWUk2l0O1w4rj7cyG/Lo5Z5iaWTtnDC4mVIhZluPMtP/TCqsqBtIvpBCPwkBMZV67sR9awierWfWOLG09x41mQrpgwXttCNL/ZSB/qV6DFo3S4h9Guq+UVuchnoXIddVMrU0ZqUqDtJ9FtHbUPQzXJc2VVMr/URy1xYmgu/oYoNjKq/Vr0hCRWGywjt7loOXNeZqTBaFAz6brnx9QFyZwlza73wUb/y9w7pslL2eD8Ra5lGP7/MjS1wkz+x8C7DhWV4iZdauI96hJfbxasr2VPzyZUe0Bsx4UGjR4cbGW480099j6jwqN1ev9IDWeGwYtkHh5Q/VLLLvESmG89wYQtc2GIXlu68FrjwDC+5vYA5OKxGYyO0Zhfi2pVV/AKHCpe4sN0huob6xVChZpbi8o4ierUXUOFCF3ZtJesZUcRfBlMfcVGaiQrBgeoZ45kWcabWMnG0ssLpzLrEhS1y4Vk+8spy7rpK7neF9AYfPv2TK9zYEaHCLBeI3txYyfyxgjkjn1zuSWYOxy4jx+n6leXB1+XS/nEtYZewI4412uGvFQHZDHcJ5kNN/CofkebCMlzYMje+0kduzCVPyqe251MnF9K7S9mHm4Rycio2gqjwFyUPyahwRLG+HVa35VOpaIUr3KCPVo7TonWZ01c124OvmjQQYmkIbh8RKgSHc2LZy5xjAWs9BQUWLjXNha32EZeWMnWs4ZSf/KKuC1rM/yYERmTrnW7lghCT5sj/Ehe20kdeUsY/3CS+2SUd6JY+65eD49qwZEigxzBwxEciEUSFv6hrnIwKZTPcwZv3NfCnFQA2jG1DPZ3aYt/JceKzyU3UI0KFkNSyDo0Ox64k4XY2tFncxDkh9oM+eUSZoYn2L+pCocX8chEIt/HGTdXc9jwy0xGtLUHy5hougGn1jNEtmL2COSiZTrd2O/ahi6jwF3VJk1FhJBIRDfv7EfXeen5bLrHGi+c4PrgUNa+ENBR980hRYXSHqWxAuzjbja3wEacWM4+1Sv/hesn8dSYH/KLk7Fe8GMO2yyltRxG93gfc4gtc2PnF1P4uUZlQAGc8dUSFM0JzVP4AlfMJFX3WkfBO4V24htJebObOKACR2UUz9NZPhYliP/NzUSG0iy8qoQ8OSL2CYYISAESFR0X0fqUHYXTbNaadlE+v9oLxOwtc2O0VRNEQ5wxiTCZaiAp/XomwIxHLecHcpVm0QrhWVrOaGf2bQenJJm5PMbXCi6e7sDmZzLEkCLePJhXmOJ7sbA9+vJ+4sYx4vY0twNVhyZRROuHPK4y/iqNjqvXlsLo6l872EFlu7DgP+WA904hLs3VvQr7Cn+fyC4bVx+vf9Yv7O4W/d4r/6JY/7BXdQ2JKVBhxyiQ5zagklFfbhctKqRPzyBU+ItuNL5s5MDKd/mLfOQpUGDWHsz34xiB5TjF9YzV7sIfrouVfXoXTzyMW6Kg/HYERxfpoUF0aoDLA7YCn+ahnWvheVrVmq21HWuFPB39Oe3BqgexmVv96QHqlmXmygXmkkX+yRXiumXuthUmVCsPhsB0OG7bN6kY1Lr3ezu8uYTN9VJp7xkKUWOKbvn10qDDNhS1wE0v89J11wg/DyphsSIblPK6jLoI5gYk+jBCIR2BAsg70yVleUN+50oOv8ZOvdYpj0uxpCYgK46Gc598NOzwo6K91ir8vZ7wj8pCoS6YlmVYzq386IKdKhZOLDFu2zapmJ6d7x9Xn26UrKth1Pnyp2ylJnouGOH9UCM3hdBcYlHxWIX1nHb+/Vyoj9VHFMqxfeXeNycuE/j96CPSL5ju9E1S4zI1n+KiXO8Rx2Zi1jwuiwqN3kcCRwrxhfdIv7we5TZJvWPp2UP6oT3aNqLW00cYbc6XC6OJBH8Nm1ni3V76mkjmtgFrnJ7LcoMwj4cDio6YVLncSa5aB+cjkuSX0ky2Cb0zFZcPxYUcX//NuxEaufn3KaezZ/bw4H6WjAyrsmaLCNB/1cqeI/5xUeGQugXCkq03scNi0wWvWh8TMVy721JKFpKbvwbTtUcV8vEn4pF/u47WDvcJLzfxD9fxfm0XXqNYrmodPhWHnxHjQGFU/0CNfXskd56UWOCVH04lv+jvzpBVmgmon/JQ88tEmoRDXx1VTdzTBX1KYGDQ+innN7YpOv8a/sHeip/YrO68ZYe6XrAOTWiE0kN/sEmhlWg/PaTuYN63wyFyCI06FmmXzusnr5k9o9hV778xNwETDbmX1++qFg0MKqRovNdIvNzEfdQuPNQrPtYif9iuACu1wWNTNEVFrpZUmRu/lNUZWTTtBb7VpVzNihUGH1F7R9GP6vi75uipuWx5wIILcvaQvSIVXVHJ5YyqVqBuCHYmMqtb9DWAk/JLZMniynIj2Ci+xu5h6uIE9OCg3sDqp2Tpo8jE7ZOFIxAyHxyW9g1HrSHVA0FnNPEKhlbAdtnlV72GVonHlmz7xw27hvV757V7lnV7lgz75myGljNAw2VBnS0OD4Jt2WDGtknH5YL/41YDcJ5r6oe55RjPbGDUwLH43CIoc3utVPuwWPuvmv+7jqzFpiFcV05rVoz/9Qs/wTtiwLE4zOmglb1j8uIv/oEc80Cvv71UO9Cqf90v+Qb6RlMdEXTGhi3aG3cS8zapmIy7+e1D+bkhpIhXnQsT8+ahs6pY9LOnfDwgH+6XcMYVSpqwKY/JPn/RJ7/Uq7/Uq+9rFG6vYHM+EPbTKg99cxb7VNfHXD/uULwfkJlqTdDPueXxEqNCwbFaz+kSzaEz+sk/4oFd+p1d5GyxM/qxP/GFAqMCVYQlIlx0+5F4w7TCjmoWY9oGzwlZWdz4zdbMcQSoEeArav4ekp1qEp1qEfw9Jo6I2q6EGaY93Ar4lY9IPg9IX/fIHffJ7veDfL/rlHwalkjGpj9d5A/RLnVp6IiFhdLuONh5sEL4bVijVeL6euquCur2aPb+EeapFLMb1YxTTHpbMfEz5tE94vZ17tVM60CO6hvhWRsEdCUhRm5XMcI9ofjmo3FXHn1JAbQ4Qqz2gJ8JM+diQCq+r4asonU3UPDUcieCa/VyreFoBtWCGehJoDmeDEjp8ax55SRnzUptQhiksGL2SHBmIFtDVBd0alsxaRj84IL7Zwb/Yyr/fK3nHlFZOZ3XLPNyOSeFwWLdsUrNaOT0wKr7TxT1Sz95QSl5aTF4YYneXcHtC7MWl7A1V7NMt/FeDcjmpDUiGCI6YbOWcZnYwynNNzLVl1DXl7L+HFWcsQVg0rBHJbGIN16jyjw7+vmrypgr6yjLmohB7aRFxZTF+fSn+fCP1SS9fiKtdvMFooMYm2ZESyVP0PdgkfETS6yjVNSq/2cH9pZraW4hfUkJdEGJ3lXDnh9irSuk/V+KvtDBf9YvF4KA6Bx4wyQ6rWXYLrb7eTN1cSd9Uxb7axrawutMi77BXGl3yHDZGZdM/Kt9SQV5bRj/cwJViMqlOrBxTTO+ofEM5eVmIvijEXhRizy2iT84lVsY8+E/LI+GfAPilzDXlzIFuoYPV4q7sT6FC21FBxmSjntY8Y8p7ffLD9ezVpeQlIWZPiD2vhLswxF4Zom6tIJ9p4j7pl4oItYPXac2MNtMWDbuCUJ9uES4pZf9Qzn7aLw2JemwDriNFhappDwr6l/3CbTXM5lxqcy51Xx1bNCZx+kztoICESECejUbO8I+r7/aIj9XTt1VSfyhjLikFIn1JKfOHMua2SuqxevrdHtE/rjawxqhkxPRLjb/crG7XM8YDMVR4ewV5SyVzThH9bKtYR+vH9PLGhz3CqcVMZoBO91LpPirDT63Po++pIr/r5yhZN1LjgnA4bIXDqmV1s8rBHubmCnpLkFw0A4XBdgyLvOTdTeKYnFhhDkcinGF/NaheWcHORIWZTkbrAhe2s4h6rpWvplRGA/3UHPpO5eYJm7bVQEhvd3CXhpi1QSrdS6V5qSU+aksefX0FU4rJvGbEg5ra73Y4TCqmZ0S5tYbfVsBkeMlMDw57N6U5HZzgv0vc+BIvke2n94TYl9v4ZkJy+GLGY7Qz6ptN5OkF5EIPtdBD3VjNu0bVSMRuoeS3O7jLS5kNuXSGl8xwg2OlTx4oHf7qJXP81El51DNNXOG4kpLaP8NCRAM0CX+nnb0qRGYH6SU+Ks1DRg8HT83pHI4v8ZKrAtQZBdSzjXT5uJhc18Zk48Neca3T5CrdS2QG6E+GVNnJg59hIfPytm9Mvaeey/QBhDfl0Q/WcfX0RBuFAky7vY7//7z0/3UT8DSz3VgsD65w2m3FXuJ0N35piH6/R1IPrfD8KVSomlY3p37cxfyxgt6USy31U0s8xHT8wTteKjNAbylk7q/jgqMyreiOTWAPy8bjTcJpBXSam1joIW+pZt1DUmzXmSNFhcO8+kUPu7WQTveSi1z4Ihd+ZiH9fKs4PONkIaAOttHKO+3MVeXM5jw6w0dlOPdO7AlCkc7wgDjV5jx6bxnzUTudJE9ONe1uXr+jBowhgVrhW610YEh4upF7rY33DknHvNen/K6YWelzOguBrvfgtcyDbwvi54eoexqFf4+o3WKKrXUBncuGOSxo5aT6bq94Rw1zah5oGBO1cJc72c5pLny5j7yykvtqSFXMQwozY0Vbt8P9kvVal3RCLrnMg4O+2c6zN8up9FzsItYFqN0lzNMt/L+H5RZHiUvR9LPDYVqza2jj7R7p1mpmZyG52gf6U8LThwhsDBD31LI/jiiz6t6xa4bbjG5X08azHdJF5eymILkcZFqArjmLAHfjca9FLjzTja/2E6cXUDdU0h/1yx38TOZ5uIFSnq4htuUSx7rAa0+Iea5V9I9p99bzZxdRa/xENmjPA7CKPdYip+t4pgvPcuOrPPjp+eQfKphn28VqSuNnfDhPPy0QhotE7AbGeL9Pvq4K4Ha8H890cEtPcF4gryDThWe78bVe/Mx84toK+rl2sZjQZxqigCvm+31SdoACgu7Cj3MTT7cKrSwoCkq4miP+JjTK/t4lnVVIZ7nx49zk2gB1bxVVSyqQxAsw7bY64f946P/XRcDruNgR6VjrZ0nMVT7Ohf+Pi7ggxLzbI8cVux8eFSpWeECyPhuQ76pjdxcTWwN4jgfIT6azjIUxh17gwhe6AIyZbny5l9iWS15SzjzYLATH1DHZ7JeMP9Vw24Jkhgs7zoVfXs582As1tQmofzoVala4XzT390p7QvQKH7HUCSQc56Dxfo+EgWdx/I9s2F28/mGfdHctc04hsSVArPDgGY48g8S4Q2UszZHqDBe+woNv9uPnFRL31DIHekAV2fTxc5YdJlXr7W7p7W7phxGlBJO7WOCYamK0NlZrZbVjbqnlF7mJuEzp5Y7rLc2N5wSoG6q5f3bLpZQ+KFlOM6tkBs7kmQGJGpON4Kj8dIuwt5w5OZ/aGiCO9+FrvPgaP7Etj/p9OfNxv9wjJNO5oFyWkfqjjfzuEnpLkFjn7GGdj9gYJM8uZm6vE97ukVtYXQT38+yUBUM9DDBajYMj2hOt0rnOYyDN4dbY2He2g8CmIPloEw8dBZOnNsv/4TDQ7ctJ7bEW8eRCZrEHNL7NhP0p3NgaH7EllzytgDqzELyAJyEXsPBSp7fdQqfn2O/L2bd75V7RSNQj064llYeryROC+ELQTRPbnkdeVsrcVsNvzKUWuXCnQxSgHui/Pz5Ibs0lNwbJ9QEA3TI3oEjoV83y4BuC5DMtQgGmChO5lrOdmqOnN7H6vg7p4lI2zVnAEmeHWS4sx4MfHyC35JIn5lHb853jBsh1Pny58wyLPehDTUJwXGOdiFbcIXnd+mZY2ZRPL/MSsOXfH6vYH0dUx5qP++y8/KrZ4XHVuquez/ESOW4QgtucS+1rZtrYCa2wiTVe6ZQ2FLJrc6kNQXJTLnl8kFzjJ2M946t9xLoAebzz2hCktuQz9zYIgXEtzqt7GFTIG3YTZ77Tr1xZwa7xgXE9GZMPudVefJOf2Bwkt+aR2/IA/huC5Go/me0BHWSXQu3BTawNUnfWct8PK0W4ek0Fsy0w0YvwklJmf7cU61mCVPi7InqNFz+MfoWiabfzILZ+WQWb7iGWO7klOR58Sx79aJNQSahxnfFMO8wbdjWl/6NTvDAE+sWmO6cGJBY8v7F1fnDXn5BHbcujTsijNgbJtT5AlDBxBVLWWh9oHv6vbqmeMQQjXsdSrXAtpX3UK+9rE/MwtZ03hiRzQDJbOD13XDlmZyEVnXwUvZyw3VaO0wh6qQffmEv+vpz9bEDp5I1UGAf6gxx72SZUM3dMfbJJvKIMtBTclkvuLmEea+CCQ8K4rCf3xEHSlQxrQNT3d4vXV7Lb86mtueTviugbq7hP+pUWVpcdf/ykRTyL7hAOh2XDqqG051uFU4rZTD/QPrIn24vFPthht7FFoLksExoVUnfeW3a4j1P/1sane6lsD5iNtdyRwgUuLN2Nn1vM3F3Lv9wm/atTerNTeqFVuqOW31FILwBPPNDmc7kbW+Ihzwux+7vlfnH6Y9OuodQHa9mtuWS644dd6caWe7AMp1vtcuedhS4i3UOu9ZPnlnDXVfJ/rmFvrOQuLQXQZXqp/wG6DLgxspzOkusD5O21XBeniWAozSw/diTSzJkPNQrbCpglHhIKyVJn5Qtc2PoAeW0Fd3ct/0ij8GQTf28df1UFOGiWL/6gawPAHGvARVqJfxDaYbuUVC8tBY2gISa7ipl/dcvy0WqZweh2Aa7tLQfttnKcK3JWEe0b0zB1ormWaFj1tPZsq3BHLX9DJXdbDX9tJX9eCbvKMxUnPLOAvrycv6aCu7aCu6mKf6BB8I1prB6f03oYVNjOm290K5sLQYNY0JbJDepfj3Phv3WRm4LUxSX0zVXcvfX8gw38vTXsDZX8eSF+iZ9e4CYWO4FHwEdOU7sbqrgXWsW9oSkq3FvGvNsTT4VluHxeMQUeonNv3dormu/3yVvzgD0He91nuLB1AfLeOqEQ0wwbDACMFTjZDLdy5tOt4qYglek0Hs129INjXcQiD3iW7yoGd/199cJDjcJ99cKNVdzOImalj1zgBp4ZKI2ZLmyJG9+US73QLnUJZpxHIgyKRKxCTH26mb+1hn++VfyqX/6kX3m8Sbi+gjlm4wytVSEtwnZbQP8MEHtC9P0N/OeDSqdg8qCTbYpamI2rViNrFBH6j6PqN8NKENMaGR2X4QCtKBwg0qpZtmLaqmlZMdEuQKmm3S0YxYT2zbBycFjxjKlOkMFMUUuF2uWobBVj2r528YZq9rQCCvoE4sZXRR8GoBOt02f7nGLq825mXI6/aWOvYuy2aoW/GpSvLGeOc7T6bBeW4ca25JLXVnFv9cqeMbWa1ts4s1swu3izlTOrKADL37uka6u4bQ7BLXDhKwLUjhDnStBe266htAfrOEiFcLVw5BbQztz4ah+xt5R5ukX4YkjxY1opqddQejmp5WHaN8Pqa93yHfX8iblkjuOyANarG9+eTz3QyNcxelLNC0AYwrXnWoUT86gVXmKJC9Shp7mJTXnUjdXcc23C54NyKalV03oDYzSxRg2tF+HgoG90y7fXgYOu8AI/yVJHfzwxl7yyinWPKdPM83AXb7zWxp8BHg+gfmOdn7i7nh+WTP1QR1ss5kduOzwkm693SmcV0YsdKlzjI66uYvskQ+RcHBcAACAASURBVJ0c6WjZYVa3WjijitLLSK2S0r4fUR9vFpd78CzHgbPaC+bKese0EKGVklo5qdcxxrgComE/JYKsmMDY/FunfHYxm+MDZtwyx3DZGKQuLeeebpM+6pf9Y0o5qdfQRh1j1IDlGQFMf7dfub9R2BNisn1klhtf7jwFtwTB/N4TAsQ6L9jPQhcGqZCLiTcKmlmGy7tLqPVzpELFAmOR3uiWdpXQKzyARqHKdkYB9TBIcdOIyedK9MKJRriGMe9rFs8oAl/JcrTdLDe+OUhcUcE+45ydz7nra2mjnjFqaaOc1Dxj6vv9ylOt0t5ydmNgwgCHUr2zmH60WWjj4ixloFxhqllLa64R5bsh5fth1T2ifj+s/DiiHLM65mkWSwRx2/BkNgbIvWXs37pk77jmWHCppmVAMtJBIki81gqN1nHFrKH1fFzzj6v5GIh2scDmPcQYN5zRxrIJU2RmJ2L4dRWEce161vhkQL6/njstn1ruAbdxrDkcd7LwV0iFO4qo99vpUSklKrTsMKWajzULWxxSy3Rhyzz4+gBxRx3/7YhKaJaTURVlf+h6A73ghxXru2H1/gbh5Hwq20cu9JDpPur9PgmLp+AEVAiFe6lDajdVcx/2Sk20Jpu2o3HDY4GBvLJpD0pWPqb9tVU4v4Q+3k/EGq3v9YG8nKhoxm04aQbGsy38zkIqzbH3QX2RBz+tmLmnSXSNqB2c4eiVsRdl4qBDkpk3Dg56aRmzMQAOutyFLXXjx3rI+xv5UkKNG7BLqmZoXL6igl3iASZqugu7sJQpxDQS3D/z+2PZdiOrX1PFbwwCpTvTBaqVnm4VJ/utxh0dCrXdF5NivdKDr/WT/+iSCAWkEjvqQiwmh+whda3QsAEPftSvXFjKprmBsQliNV7ilALqjjrh4wG1jTcpzYrLholEIqYdZjWrjNDe7JEvr+JPzKdWekBX+aUOjcIOpMmp8Nxiau1cqFA07Vbe/HuXfGEpAzu2AKvLA564DzcJxbjGTwzFnIAC3v6NrPG3TnljPhgynOPEWtf7iXOK6b808F8MKi2cQWtgEHOM+gXAN2yb1uxm1vywX7mzjjuzkFrjAy4gYFl78BPzqHd6pC7ggjuERiIRUDJHq2Y3D54ZrRwwk1nNOmZTIKUi4glryI2le4ilAfqicu7tbrFfBLlIh1zeGX6BawGPRecn9lMgLcCw/lMTcms1f1Epc04xfWkZ83qH2DAZs4t+ePLb4P9ppxf9VOwGwAtTzRCh31/Pn15ALXUsVtjsOtYcTkKFu4qpb7oZPJ6SYo8yta2YVg+n/qGSATOXnUsCGmWH6DxcUywQ155cefQr4EQmg+/hWtr4a4u4vYhd4qPW+KnPByRSiaOnBFQITdTVfuKeOraF0RyhcY40gRIgXPhjgWmTYd6093dLl4WAVR61lG+rYb8fnppAFF0f3BiRrYMD8q5iOtORVChqm4PE37ukNt7QLJByNM1HEX/QzwaUq5xkAHjQ41z4llzqsWae10GGR/SIimmNidqf67nVPiCZ6S7s9ELq7x2gs2T0M/O0oZhWLq6uzGOyPMB7+z8u8toq/qtB1bGzYh9g8PgTQjidCl/vFLGJapNkgpo6FfI6GJq2J8Ss84HHQ44b6OOb85m/tkpVtK4A/CekK07xhK0DdNsmNbMY126v5df4gFtzwgPmqLFJqHBytskcDORe0XyvT9mQzyz1EPAo6W58dZB+tEkswjV9wi6eAtMKhyXTPtAnn1pAZ3qAg3iZYxfvLqH/2SV2i6ZsTRSoTN47E093KNWwgoXTrXZOe76F31FIwayVDBeW6cHPK6YODk3vvQIkE37RcKpfLOfXYy4qmUOHamiLZYJxToCz76jj3ukW6glZMlLM44uXYdO2xxXzvT7p2ip2c5Dc4CdW+4hVfvKMIuaJZqGKUGM19vgvz/g7kD/FMMYFxT0oPNPE/b6CPSEPGGhJzOHpbLjcjS30kFdUMHUYL4CEuNl/BN1qpNVLy5nFLvBwS3NhZxRQL7cJHbwxdfFn3g2r202s8eWQ8laP9G6v1MHHqfeA1GpJ9aEaamtwagxhjgfEBx9u5AowVZwtAAI1mW7B+KBPOr2AXglMXUCIJ+RTf2kWSCVBYpNmhYtIfXcZtz4wMbFruQffE6I/7RebWX0yuSDZ+cGDDkjmV0PK5eXgQsODZnvwy8rovFF5LGY6sOXkkL/ZJZ5TSC11gzj4hiB5QyVbSoLs02SHcYCFXy8jtE/75bd65KIxeZifvUkMvCZdrLq/k1vqI5c6M8uO9VBPtEp1zCxjshNS4ZGtQS4n9cebheODJCxsBQOhish9rVwtDWPxkHBnFqwIaKRCaVZgXHuiRVwTpLLcUxOHUqDClMY8yYbVQkivtXO7SujlXlBkscyh7DML6Sea+EpKn24XRyIRTreLcP2OOn6ZF7Q4y3Bhq7343hLinW6+SzDk1DJCLBvEKltY/e8dAuwimAH8RdgqH/FIA+sQ1Owa2zGPNfGr/ROuh+l0MNM70LZa6SXOLyKfbaTdo3IrqzGqEft4T3JloKJi2uEB0fh6SL60jFnhBIyWOY6MNODRJ84opJ9qBgYUkxoNwcPBMdsjkl6MSQe62ZvKiZMCgJJg3H2m04l9H+rnS11Yths/uZB+ppUnJUW3ZocyEokwqlk6Lp1fyixyg0dimgvbA3rEysNSSkwKK384zcIVA1egLzUexVpSfaSaOCEIbHwwc9WFbQ4QF4bYwJg6ze8W/92Y38PtvPFks7Atn0pz7orFHuLCcraWjJuDCu6xAcl8q1c+1kMunfQ07Soi97XxrDpVgxGz5ySb4WHZ/HxAubycWeEFt2KmCzspl3y0gaumQPpxrEbjH1Vvq+bSPcQiF57jxU/KIw8OyoKTH5zkAJFIRDCsTs5xAoSYHUX0A3X0t/28NPsXwZn6R6Q/19Aghc3xbKzOZT4YUEkt3sEft4B5pUIT3OT2273yzmImG6SVAGNzY5B8tpltIkFNWNxikv8Kxo2S+hVV3MYgGS1/OCJUyOtWI6W80kRdUATQA7UPbizHS5xSCHSaSgLkzE1fm2nbvQKwhM4qpGC8eIUX31FEvd3JdbIgWzaFZ190r+CB28Dor3WIIFjn5C2ku7ALisnXWtmRFBoFHfPdiLq7hMl2chdiGSH5NlR9Yab0ci8OaKsRaE98yrQF0+W/HVYuKKFX+YBiHFXaYfR2qYdYG6SfaeZrwJCwVH90y6ZU47s+7sYqOitAL/GAgcjRPSc/KfhXSGHHufB0L/VUE1eKK5OG7exrwCU9MMCeV0IfNhVC1d12NPZYaogeO44K013YOcX0m11yjwjIJPqx2TbCnG41UOqFFdxiD7CY0lzYjiL6y355JEZBcwTR9oyqd9byx7lAWCDLiRe/0ETV42LqsEwuZiIJf1+7cFrehJm22gvM5INDsmyCopLJT0Y6OGNfh7TER2U4x13swl9uZfu42fW7Icn8sk88o4T9f9zUIjfw3N1UzY7Jsz6kwY30do+0u4RJc+MLXNhKP3lxmZCP69D0jC5s+sa8UqFs2v28fnejsMRHLXPixesC5HWVXHBcdXJFphCbvrDp74C0f9X6bkDaWwriQrP6CicN5Nm1wjZa/UcrvSk4lY+R7gbjJF9uE6soEC+OvbjRhUm6WYLJO4qoLOehvtiFnZBL3dvAdwowt2RWbTe6pwm3u26HeyTz6kowvR1ayut8xJ4SMF161sLnY4Zl0zOmPNrIXVBCrQIjXIG5lAplwM8sc+h/rRc/o4C8vpp5vUsKkTqt27EVPLHrhdumbWOK+emAfH0luxq0gE0wthgo2B7ilAL68WahDFedMp0kFx64QnsE88sh9b4G/uIQMCEzPaB7WPJpU3FnmuWo9CfkUX+o5F7rlqspnZqLt55V9cox7sLSCSrMdmEn5hK3VLOBcY1OVFw4HZlZ34mjwuUe/PpqrowCmM/63dgPGLbN6eYDTcK2PApS4ZZc8v56voWbChCB8b6m/WKbuLOQgo72NV5sdz7uGxZZdepjsbudbRsId/6odE8NgCjLsaEyPMRzII9aj82j5gz762F1Sx4F4okO/95aSfqHhOQCbUciNYx+ew27KRcUNmQ6IfJzimnfqJIwoTe6WsOyKFm5v4Fb5Qe35UIXvimPer4FZHfP6pWeTyoME4rhGQSZuXBWcrobhKo+GlD6gJ0xJ6aYOFfNCg9J5tMtwuYguNmzHN/cTBHkFKgwLJlWHaXva+N3FhCwEBuGWM8tol5oFRoYnQEdBhIvtYfXD3QJJ+SCNO9lTlHAf5oY+Mc1ZiJkGr0+qW7AErXPB5TLypiFzj6z3fjWPOrrIWU0UUZ37H6PAW4106ok1H91iddXcaDdlm/i+T9rjDWWR5a6wfjjncXMX5qEL0fUJs6YHgKOtYu/HZL/UMGs9wOf1zK4aBe2wklBgkFGmM6S5gaWMqgDnbCU4zGdDEBbVZT2r2756grArZlOLnHs8pJvwyDsKg+2JUjuKuUebhYPDqtDshWXlxQLXMJt1TB7WemWGm6lj4RnsdqDnZBLPNgsfDuitXDmuGJJJoh8zUWDO+RQUSpc7Ohom4PUYy0iDmLTSZ4Th+xh8hegB+3vFi8pAcGQdBe21k9cEGIrqCmOU63wuGLdVMOtciIYi1349lzipXqqi9Mc4Z7c0xz/HxXUd7v5DB+1bILm8JurWQ/Io54yiOxIpILSr65gtwRASk26C9tVgP+jneNB2diMZ8oa9rcj6skF1GrHAIdRly255DPNfBML3LUzfZPXzOpx/vfl1EIXAe5kN35WEe0eksYP0ZETn+d8UqHdI2jPNdFn5JOLXSCSsyZAXlcrNHHmYSdaQr/tV4PKFWXMUid976cYyLwOsiyfbxXOK54IOSxzYau8+JkF5POtfGMyXQxcjVJCe6COWxcAJLDcg20IkH/rlHB1FkUq8WWYfBdG259qEVY6MpABFHzi+TaxgZnlqQao0Mk8BJpzLaU928zvKgLtDxY4dTzJGST2rznwCQ9aV5KbC5kX2xOEgKEvTDasb4dkYBf7p+xi2FxrhY+Ek6SgKgeDZUs9xDI/5VjKCdwHIGvatH1j2q3V/BanPg+mns4aII5dvFOmhq/zE9dVst8NawOyJVvAmkuo1U9inuD/cNgWDfO1TmlHIb3QoSp4lGw/dVYJ+0QzqJAbkExBN1Os7J5+jCgVwmt0dhH7Zo9iO4ud/uGk7wBZ/H5AuKWS+q2bzHTh63z4qQV0CalHv8UbdgtnXlTOLXJ6lS90EeeF6LJRgQYq4UysEv32jBuWbRfg6kn5Ew/dBS78ohDzfp+sAIfsxG7DkUi3YP6jUz67iAb3iQvb5Mfvq+eSm7otnPFiuwgc8JOWDUhE9xLnF9O52IRyknBZI5Lxbjv9u0KQigzcKW7sshDVxuoSyJ+d5WdeqbCO0S4ppdc72skiF/a7IvrVTonQgHNilmXN8Gf4PKgk9edbhJV+8Jj5KVTYyhqvdYjA8zjphspwYZuCxBvtfD2wi5PcQYCTfxxVLy8DaZLAI+EjripnXaPOuR3u2UFly7Ltj/ulHQXUOi+Iw2R7iT9WcYHxBOwRC9JUv0LDBv6jFlb/94jy1zbx/BCzIQAifXMdfwyc617i9ELmmVahiQZFXdHjTdjF/dL1lUzULoZVyev85Pkh7sV28Z9d0oONwgn59FInAQpEBkB9O+5YynwZrsTGlMORiGKFvx5Wb63lNgVB5vCczGE4EDnNQ2zLp2+t4fb3iIW4OuIog4cpaJGwbttlhHZ/I3+ch1zsKKc5TjhylY/Ynk9dXMbcXsf9tVX4sE8uIfQR2eJ0a9ZuRVEAI5FIDBWCWuZdxeyBXsVhkMNZctEw/2AN9Rs3BYqgvfimIFVATGl8Y4r1/Yi6swQExIFf2EtcW8UOC5oz1jJ2UXPdDjcz2p+rqe15ZJqTiH5iLvV4s0CqRmz1EaHZxYS+t5JbDMu2PPgV5XTpuESDJjHTf8Ct9e2Idl0VB9N6Jx5CTvhrhZ/a36uMKFbsGOLoLuxIpJ037q6mt+cCmxqk7+RTjzUJpDpLlyC4h/mjQsW08jDl5CJ6mSPYC13Y9VWca1SLK1mLnkjqG8OS+fWQsi6PBuX2M6dYJzGQRdOupIwX2sQdhVROTB717hL6bx1SMwPzgmdckWWHRd3Y3yOe7PhAgMLrxS8oAU1ivh1SDw7IXx3u6+CA/O2Q8lAjf1o+tdZJIF/pAXv+YkCenncZu74pKnTeBfLEG3Ybbx7ole+q53c4013Bzew8LWM1qSTbDrjErhL63W5hKGbM8KhsukaUa+LsYjcwzS6v4Pb3qq2cMSKZZaR+T5N4SgEdPQRMpDqjkH6kkaujtWhxrmJa/YJ+Sx2/LggiUKlb9DBMvNIL/Ah7ytiHWkTfmDY6Q4+cWLxm3bbDIMv62xH1wgp+Qy6gGPBscFyWMJC93ItvyyUvLmXuaxD29ynfDiulpNYtgBTZSQsxGanFUeF/3PzvASo8zJ+qUf7JugkqXOnB1wWoPFwLT6pmvaL5Rqd8WgEFjfFNQfIvjbxsmLGEdXgHHhT099vp3xVTCx19M8dL3FTLjRzabFyxwmOKdVejsNxPZoFyYOysQnJ/B9fN69Op37TDomk93yGfXMDE9YnJAhmCxH2NQhGuJ+xfKVvhYlLfCUQduIaOc+HXVnJfDCgpukfmjwoZzfxuRD6+gMnwgDSmhS7sL41CHWPEtXU4jEsgm2B287ZCkEF5GFTI6VYNpT/VIp5TTE/Fiz34Sbn4s61CK2fO6q4xLJtUjOfbBFjrvcKNrfFgJ+cSF5bQ11SwV5YxV5TSh/e6soy5poLdVUxvDpKwGnKVB9uWR/2zW+S0ZH09plPhRPKhYoLqond6lB1FzFzHHy93kiQ3Bshbq9kmbsrGKMD1Gyq54wPASwqjuplOXvieEuaDPkU0w4Zj6Ykm6BnzaBMfS4U5oLyByAnQ7/UpA5N1EWOiFhxktxSBjklwh9GvJN+AYeJtedSf63j/qDIoGtphWcTTpRCGgAnNLiGNP1azK/zk/7hBGgpcHjS+nD5OOIhu+6ntBfQNVewbnWI5oVLA8Jzyl03f+XSt8IhTYS6u2ZNU2M6bTzWLJ+ZNOEzOLKRfahedZmzJyDrhsuPexGUjMMhdVEpDKkz3kFfV8MPSIdk5Tua5/bcO4aQ8cjFoSYJtDJL/qTwtBxkF8SiJZrhXtG6oE5Z4yZyY1oEw32iBC7+4lH2r+xAbPLqkUcX6bEjN8gOfaZYL+62LfLJVbKCT3TbR70YikfmjwjHF+nRIXRdDhU+1ij3TmvXGLibF7XDYbuP1ncXMyslWCwkL72bSCpto7eVWfkMQBDyhYIM86gD5SC1ZPA57qs0iIYYdJhTzyRYBFkfDu3WlYwLC5nLpTou5w/t3idNYIPpEXO7GFnupp9oEUtaTZPvFUWEUSeBSEAy7RzQDmPpC20TiYorBZVi5vMqD7ymmSgl1okFaJPLdiLqziF7jmzJjM9z46lzqlU6plZvyalvhMKvbP4yo11WwGwLAWwyRAhj5qNe6YA8rsNRuTvuoi9ucTx/nSqlmZgJxD7bBT9xZTb3XzdfQBqZYc83PisI004ZuhynNLsTVNzrFm6vYMwvIFV5ikYuA9iDUSWF8c7UX3xokziqi9lawDzYJH/fLzawuzNw4q4bSHqqhtwYnOkQdcSoM4lPHbmKNu2r5TUESNkc6P8T8q1uaTkMzgZDkfVo1y0dBYBRSYZqHvLya74nvrQSE0D0i31zFZDi1kmt8xOkF9HfDsmzEdYQOD0ogY/G8EEiFyXFjx/vw7bnkeUX0Vj8Igyx1YccHqZvqhDjFE66whNAfaxaXeIDjbIUHpNF80K/Q07onzHQ680eFfbz+dpewNkiCIh83ttxLvNghDUhWXIebmRaW9P1wp2BcWArKV1LXCq+vZL4bkArHlGdbhdMLaWgXw3vKKQTEdxeRH/WKIsgFmIUKNcseFo2Hm4QFrom8fbgfpx1RfBe7uN5cqfy6yHF0pDv/prnw47zUE21g4EySzJaZqBDACMaGWmA2yhcD8u9L6VVOtQZccSr/rnRjZxeQhZiimiC6aUUiB4fVU/OpVc6DaOLM3fi6PPrjAXk0JlQHPbvlJBhEsNGpTIAfhlT4t065lZvwFrUzoHvoCfn04rnMIF3pwTcFyGcbmfxRiZnI+5nlyiWVqsR/DIMqN3tA0H0j8r524aYabneIOb2Q2pZLbPSBHnOw/gw24oZZ5WsD1EUh5vk2wT8GFNWEE+trKB22Y4ACMa9U2MAYt1TzGyap8OJS5u2e6WVMiU8/+busatZi4hUVU1T4+yq+k9Onn3I7q73Sxq90Mq5AGM1LvNEpDArw8TpxEMu2q2ntzhruhNyJOpbTC6jrKtmX2oRdRRTMJU7zEGeH2LhaZjjP9v0++bJSZqnT8m+9D7+gmMzD1Hi1c+bzmT8q7GHVt9rZdU5wA1Y3/61TGpSsJPfzzMuM/0uXYF5Sxhw/WV+cXCuEVaSXhKjnmrkH69jfFVGLnVJoWBMBM3Lg1bm7jg3himAkdstGF6FZoLX1A03CsW4QclnhxlZ5sM1+YtNkczPY4uyI/Lspl9xRQh/ok1ktmfM3GRVqFug5+PWQcnstv9ZPRhXOVHhwhRtb58P3lNDFuBqlQqAVFlLLnWIvuJNMF7bKTzzTLNRQU4FLyJuuMe3CELvCByrDZqLCXkb5op3ang8uTIqrgh9b7cF2FzNPt4jVtOHUh88eKIxexbluwNMhFKNiTDjQJdxTy51bRC3zU791+mVFY52wSB4S3K5i6v0uYVCcymuJHvRoUmETa9xTJ2zOndAKd5cw/+w6MlrhdCq8vIrr5lQlJsgGT5nTjG8HpRPzqFWTCYb31HFFmBbbqEYxrR+G5c1+ENuBSYiXl7Nvd0uDvHpzDQODwuku7IQ8al+b1Db5HIXdCnjdfLSJ3+hU4oPPBPGXGsk2Ro0CPuvG/FHhkKB90A3qHeGE5bV+cl+H1CceEa0w0imYF4ToaAOu5FQI75qNAWJrLihPypi8JaNKHEwMXAjCx+TtNWyPoCfPANUte1QyHm6eosINPvyCEuaaCu7GKv7Ivu6u5b/u5ftABliyn4RUCMKgXYL57bDycBN/aRlzch4JG1qkSDcwKLw9iN9XQzUzE4VL4UiklgHFXlvzwKMb7mqZU0h0ZgH1fJvYxpmiARRr3rDdY9qddfy6AGh2Bp/qID/IB3IMfxhRnGJGcFaUrJePiztKmDTP3KgQMLWfOK2IvrpGeKNbLsQ0SjWNOafmJUM2+jeo5KqmTchGF29UUrpvXP2gX366VbihittVRG0IEIudwViwxBtYc37id8XMx31S/7TWttEa5KOgFbbxoOf7tjwwmGGpC9tRQL3ULtqRcDSuEj3HuW7giukfEi8qm9IKr6jmB8QE949uWcW4emU5C/MZlrqwi0roAz2SE8We0OXbWO3lNn6FF4gKpMJHm4VyUhd048V24ZR8KtMpbt3gJ64oZ/MwkMAIk1EEw65n9Buq2WwnoRUksRbTPw6KY6l134BnPX9UOCYZn/aJ6/OoDCfylunBn2oVO/jZgxKzXg47EmnhzVOKmWVO8HfWFOuoArHWOzHgF+ZR7y6h/1zPn1/CbHKst0x4OxdSr3dKDYyexJdiWDYu64838wtd4KpluvENoDeH+PUQiCKWkrrzim7oM7wJP5bkw+BPlZQ2ICRzOkG4YqkQBExkwx6UzGJCe71LuqGK3RQALv+oty4VKoT1Jzle/A9l1ME+PjZJFVetXEy7tYY9ITjRrAnkUTsJjLuK6Vc6pEJcq2N0z5j2p1oeNu+D2dcgfu3FLwjRL7QKHZwezT7RTGtE0u9tAsk3sIt9ikFkODY+DcwVAWnh99XzYEgeA/yGPyX/eVYRhPVBZhi0Tmpl9e+H1Te6pLvq+XND7Am5JFR8YA+rhW7ij5XMj8MKZNLonuc7ghzrK+wVzDc6hFNABBkoXFtgBPkIDMwL9wv6/jZ2ZxG1yHHyZvvIG+v4cSVhbDrcwRv72qTTCunFLtBub7OzjHEVDLGB4PwwLN9YCUp0M0GmLr4mAJx9Tu2w/e2wemM1l+b4AVd58PVB6r1eEZMnJnOOKdbH/cp/Uh0m0gl95N5KroPTpGnKaRT/6RvzR4W0an4zLK+PCZvc18BX00cggiyZ4RBlbChkM1KLIMfd+DCPekcR/XIHmBX3Vrd0ZQV4nMB+Ciu8+J4SZn+PNCyDazQdMUcftxnVeKGNhw+hdBd+fC79cofUzEYJFCaDw69Ht6MbcXuNfT92G95wKXk7DqFCw7b6Be2DXunCEJsdY8bGAZH8V9hI9vR86p9doqCbsdVUkUhEMu3iceWOGlAWE5sDmAkyIfFry5kbK5jpRvRiFw53yE/boWGHKyn97gbhNy7yWDDJYULfTL7I6F9znGB3hofYHKQebhQ8o+r0Q8ShfgR/hbbzuGrljWu31HDrA+SCmMTsNT7ikWbQyTpWmo4mFY7K5rf94lnFE7rbQjdxWQWLSVqKndlmBspupJTbS/ETAmACASTZh5oFboYkHVqzK0l9bwW30PFPpXnIS6r4GsbknPvMikRe7RDPyCNXOR291gaoveVCETFxRzn992UwvMwNOr//1k0+3sjW4hK8RTt4885afksuyBbKcWGn5ZEPN/JialNYo2c3f1SomlYAUzcWTiXT3FDNuY9EXuGAZH0+pK7NB3tOJWwSvV/gRoYL25pHftyvdAtgqKigm//qkaK2M9zhZWXs5wOK0+M5CtXUBsgrNMC3TsyjVntAIvTaAPHnOq4EpLX+PD+ACuEc5BZW+3QAdDk+t4QBlulcq3dhsMZDbC+g76zlPxlQ2nhjuoZl2mFMMX8Ylv9UzWwOTkWHgfYH9A5iSxDM+oBVyVBhyh9bQAAAIABJREFUXOXDzygAxNrEglh4XHDKDocJ1c7D9ec6wDQZMCxtjgmGwOnrBhmepxVQV1aAoVG5mDYEwjgpPUx+ynWDSg1MoCul9Bc7pFOdxllQDc9y43+sYlqoQ1o9H00qZHXQHvGC0okU68Uu/LwSqnCYJ6c14p8TCLplFWLKuQXEBt9ESvNFIeZAryKbieOOsmkPScY9DfxqZ4RIuhvfWcJ80q8MSBYY9sCrd9RxK5w2fItd+MmFzL4OpQ00NwToUrrtGtM2T9YyH+fCLw5R+7sExbQUwywl1D0lIIoKM6uvLSM/6QEtvQ59+sxycvNHhZZt1zL61VX88U6xQ6YL21FIvdAukskKZ2ZZLfxzDWW81C6tDIC81zlRYdQufrVTaudBN3unVg3IyfNtwpZckG4Ny1g3B4nrqthCHM5CiF8V/NZX/dL5hcRKpyZkjQ8/v4T+fFBRp93j8V9O4XdYfNHI6I2M0S/C1nOxGkWCXRwjGnafYPhG5Zfbhb2gCAbUscNSp7hHQcJfYQhpqQvMFdoaxHeXMo+3isExjdCSzQwdk03viHxLNTPdUo5OXIoa2tPt4unnwRt2t2Ae6JFuq2F3FJKb/PgKD3AbzalUBrh+wVkQd9Xz7/UrdYzO6Km26Z6+pDm9A3X6WsZ4sBH0R4ANuNJc2MUh6sd+PnacwNGkQs0K45p1Sy2/ygccGktc2Kl5xPONdNu0kb5zOtkx2fioT1zjJ1Z6gAvyWBd+Ry2fN35IJCR2h87MZeu1TvFsZw7PEhd2Yh7553q+htZHJf3Hfu78EmBoA8eCh7iknMsbhy3jwT6ceSzGdZUsaM/hPK2PD5C31XLjijEgaF8NgKIxkBTixjLc+NONTFRhjF1A8u35o8JIJNwnGi+3gR5WsJHMWh8o+GkEI30OM9AHutiZ9udgpi6X4wV5lKlToWMXYzsLyb91CG2Huix53aoi1dtr2FPzQHJMDkxgChAPNou5mCYb8RoMhLR4TL67klztqC8rPWA8znNt4oAYP5MkOf7T/goegaOKVUzoL7SJz7SKYGiaMLspc0w3r7/XJewopLO9BOzlkJDyZnoz08nO/42LPCmXeLiKLBmTZ6iLil/wTJZy9ECxhnZqRivgk25e+6xHuCREr3QKG2Nt8Oiek2/APv5rg/T1VaCP3k8uMos/8SS/M7pdTukXlzFRKpweSj6aVAiX+kqnsrOYXeA0y1rnAxWQ/jHFmb2d5FSS/alkXLm/DuwQjqH4jZt6pk1q52ZJaXaNKH+sYpc4SUjrfKBBvGdcbaSU+ysIaGjngHATfk89N3po1UqcQzDNQ/6ulK0h1bxR6cUWbqmzQ5iq8lGfSCsTbsRkJ3Do3+aTCiOEavmGpSvKJnpqLXF6en/cr/Sn3AHz0MVGDMsmZO3eJn6hF3T9AvWUKRTewVsmAzTRIr7o4RJGYwXdKh0V/lRNL5pUQbLd2AIv9WCz0C8cMmw+uqQ+Tnu3k9uUR6W7gZ2+yIVdW8l6RhRGO0yid/YMeOCHEfXKci7LByqpVgepr/r4MXEqRyW6gNiNYz7sBV0lNviJ5U6qfepqFLRel3vxE/PIe2vpD3r4WlLBJoY3xR4i8fZMlnI0kLLKh59TNKNdnGin4GnA61Yvb/jGlH2t3DUhfK2fWOw4EFMMp8BWDrCMemsudV895x6dQ4pZolXN4T1Wt6to45LyXxYVesa0O+qF3zqdUUCir4/4aytfTs5S3J7wtFUTpGc92yaeUgC6fmW4sOVe/IQ86vNBmUvaciYSiTQz+nNtQoYXdI4AM5V8IJz9Xo+4u5BcH2Nov9Mjx3Wv4Q27ltb/WM0td+Z5prvx7QXUgR7xxVbhhkomx3FUrfIRu0sY35iiHdo2MeFZxL05r1Qom3YPrz3QwK1yxrFlu7BNAeLqCsY7pmiHZUiSmvVxnwy7Cy9PmQqhXXx2EfV0i9DGaglLAGBQ+Mt+8epyepkXpIUvc2ML3cSOYnpfuzAK0pvjCY7XQXrABaUsTLDLdGGn5pN/aeAbaF2eKlKLw3uWXxUrXEHqDzaClORsD5hAvypA/qtT6ORmo8I7a8CNlzoDwkqJ5W5sreNcu6qCfbZNCI2LmJSgHGqWVUci0FK+rYbdlgewgy9QpuYlLgjRr3YcEi+edW/wA2EwIc/qYNSve7nba7mzi5n1ATCWHnYeTfFMo3OQH2sGrrFozHrWNcDMatGwBQP2GprFQxG7Q0wFLXb2hKao8PwS6oseUJEW/djR1wp7RPPtXmVlADQFyJxszb2vXRiQDKebf3Rps2xodrhHMD7tFy8oY5Y4yU9pLjCn8d46roqCPSCSYcVo5peD8oZc2mnmjC90EZeXMTdWshv8INMrC4wnJO5vFMoIPa4Yw7DDjGY90yqelDfR/fR4P4jOXxpiTs+nYLBlUy75aBNorncYDuJ5pUI4n+DdXum8YjChaZkLW+kB07SfaOZraTCyNc51PvM1AIoCrlr5uPaHSi6200oqWiH8zFUV7PfDqjgjSQF1rE/QP+4Vzy4C/VbgxKVlHvycYuq7YXlgmiZrRyIDsvVkC3g0LnJM9VUe/KxC6o1OoZHR9LlxPThBVrcbWePpFuBLgbQGIhC55Ae9Ut+0vLQ4rI45t3Cq60FyyxH+dbmjxy71ECfn06+2i9XU4XZZnFyIYk6GgN1Am/2Nm1rkoU6dIQA9+aWU/rfD4XHZ+GpAvraCW+2HecKHhK2Tny+0lC8ro8tHOG4u3blxxejm9VbOnGvydhtn7muTTi2Y8hXuLaXyhngiJs3t6FNhJBKppo3Ly7k1fhIGfMHMlkL63V6lS0jYJCbx1SE1+6thZWsuuXaymeAiN3FeKVdG6HhK/XHtclK7vJRZ4yfgkOLYy7fUDYqr3uqT6Rn67382oFxZzqYnygxLd2FnF9HBMS21ZcSf3bxSITxYDaU/0yyscspOYF+GrUHyL/XcrJnMMWsFPBUcV+6p55b6qSXzMNtk8ljhUdl4oYU/B2RKTaTKZXvBzImvhxMkrvOGHSL0W2o5SIWw7GRTgHi1g6eUZCXDk4eL/g9OsI7RX26XNgRBlwMoHuudQo+UuljDHP1YqUq4Dc1hMEDdR+4JMQ818l8NSE2MTjo9KJI9zaNLnWHDtCdCwC92yo+3io808X9tZj/rl0C8+Ce0OIWdyxTT7heNIlx7s0e6ropbFyChbyjhOca9Canw3GLqq25m2hDOxCejW/a4bLzaJV1bw19bw7/YIfnHNUy1ZwtKgjmZHZzxr27p7CJ67WSNdrYL+1MNMyLpsXMhfhYqHJWtbwblnSFmsaPNZTvjiXeV0C+2i6UkWF5cytSh6IRFw+rmzbd65Msr2Cwv6NOzzIlgnF1Ev9Au4qqpxEy8O/S7sb+F2zn9hWb+tHzAyLH9KJc6fWfPC7HecdC3PWEvvxoatDJMePXX+IirKtlWML803oKLPfxM20eBCikNjIS8spw9PgASJECtNJiiQf2lkfc5MaKYQa8JlqmY1pCofzcMJmRuzwdmI6x1gwKfulYIHXmzoQT6hzYyerRRNohGusEw+Lvr+XxMi2tHr9tAV32vT95TAnpDgAxiN5btwc8PUfvahUpSp0G4fJaYvjMF1MwdVx9pFs+c7DEBKWtviDzQyY7KQH9OAE3MW8fAPjZxLBD3KwzmrvIRpxQxV9cIb/XIZYTKa7PvHR4IRAANC1OsAdHsFcxhyeScsqnYpfEGmCfbxBr1lNZGK9ShNqlj84KRXQOSBfYgW4xmp+zfDlthe0i2vhtRH2gE80VPcopn4PCwuDON/fUw5iDLhtnByHsr2WM9ZJobKM631fLv9av5uNbGGSOySWsg/0M1QY9C1bJ5HcDSxRtlpPZGp7jXCZhkO6KT6cZPyyVebRd+xrzCqJxolo0rxiOt4imFNIzLZzuW8s4i+uEmwTWm1tLGkGTxBjgpwwaeAdW0Wc0alsw2zgiMq690SheGmBwvUOgmEqH95KPNfFmiNjPR48ZtjCumf0S+uGyi50L0YqW7sJPzqb+2iM2g/37iH0qzfhxVNzvNfaMTjmDax+kF1CNNApm0QDXxTp13jwIVRiJgQtZ7vfIlZSCTHGYyLwUjtsk/1fGfDanVtN4ngj5vsiNahmVrpsXrFq5aXYJZiKnv9oj/IbItTk3Iche2EtT84mu8YONIUyFIYrIjkXxcu6uOWwsmtYM8gXTgB6QebOSrKG36PLIm1vh7p3RWEQ3HUjoNd/GzCsjHm4X/jD9qYA1wdqqlmLY+IWBAzBTTZjRrUAId7L8eku+u408uAIMiljknlePBTi8gX23juhnQqTDJFYR/Oma9446NSlXCjUwXluHBd5cwr3XKvaKlgm7Dc3h+SobZz6ueYfmdLvn1DumzXtDgOu4OT75QaOoWY+qBHvn1DvnzfqWSBGMP57AIcICwblm5Y+pDDfwaPwn6/0xq0QnPGlLhecXUtz1sinOQRc1oJvhLyqbGPB3rIhZ4qPNK2McahS/75Qpc7eM0TNIYzRyXzRZadQ/LL7aKl5ayYEmT68lw479xAydayXh8L8KfRSuEV6eWBhEPGEqGiKU7ve/XBag/1fCf9CnNnDkqm7wO0s3GZKOWVD/rkx9rFM4rYX/jBknO0W+t8ZOXl3OFIBF6Dj+qaY/L5o11wmIvCV3+0R2eH2Jms3DtJlaH9jVMqJ7s34VdXs6+35dqd8Lpyz0qVAiGuwuG/XKHtNmpAgYlCU7k939cxOogfWMV/1a3XIJrg4JGKzqrGbiktTCab1R9oVW8KMSucpLkgDrphEpWe4n1AXJLkEyxBhnSZWpa4QRCmhWuY/Q9JXSOD0xcgjrapiC5r01oAr31D/mxI5FeyXrAySSLWsowpnxSPnNrjfhWl1SCqcOiTqsGEDDnNSLp1YT6fq98I5jhR6QfWhy92k+83sa3gfKVlH6O2T3ZfBFiFPtvlgvLcGNrffhFIfqvbeKPo1orbwrO9KpUclBNG3B2Ban/o1u+oZa7pIw5t5jeUUSfV8LcVMO93i21srOmqgBX6Ihk5I0pj7QIv69kzy2hdxbRu0PMFZX8Uy3ivwelHga0bEplPZEIaHs/KluVlP7xgHJHHX9GIR1tnBV74nD7MOYgG5ZFyNo/u4TdJWDPC1wggJXpxtf5yVMLqPND9BWV7HU13B9ruJvrhRvrhatruIvLmDMLKRjYgdpKpgs7PkDuCbHfDStY/Ej4+C7W89qZJk6CKM0OEeoTDcz2fCrNA+ZRgG7pjn5xUh61O8RcXQtO6tYG4dYG8cY64aoqbk8JfWoBtc5Pgm7JTje6RW5iez795wY+n9DHUnIRTq3CiSHYf+uUTysEvQWjmVJrfMRttVyfaCQ1tMODkvFaG7jocIAJ7N1wrAuU9FRSydo3Ta0g0dbRoUKniU64/v9v78yD46ivPM6f2d2q3a3aFJAFGx/CxitzGVzmxsaAbYzBXky4i8MQs4EQTFHLJhwJ7FJsCuIEiCEE2HCGQJYNCzOakUa3NBrdkiXr8mhkWef0fd/dM7u/bmksaQ7NyFa7iZ/KZbV6Zvr3+vNaX/Wvf++g9TcOi7fU004qAarz5kNF4zeUk9tqqbsamT1t7N4O7tFO/gft3H0t7G0RdnM1dWkZ7nTLQo3S/fHiAP5YG/vagLizjlpfmleI9QKk0Ewk4rL52bB4dxNzVsnUnVpxALuxmjwQFUelWd14Eskkb6DwiVf6xBtrphagnXv24iC+oQKd3R0R5qFWbm8HZ19g6DJ7uJ27p5ndXkdfUU6stZOjl08neuwI0//ZJ7RRqt1hKZPb0vad9pMufm0pXmQ/TnbWWIuclLgSbD3q+04+1sa+G5O6GT3vzjLoyRcp652U8qcR6bkufmstvQRNGFGWlVON6twAsbmafOsw38tqSO3SzHJ2mFaCU/XgmPjjVvqSclR+xjnCEh+2xI+vDxEPRMjXe+nqCXFYQEGn8z4OcA5roNYFVmhSfaVPuLWBubyCLEb5BlNVsxwIC+uDnLR7bx+klDf6+W215KUhYnUAW2EL4ln2uS8pwc8uIc7yo/+XBIgUlnPsaSMq2+XH1oeIh5rZ92POittcNm2E8tMW4rLQVE03N6UQNfBWjYOE9Nwh/qYwc3EZcV4ArRI60ddL/Rg6o5n/SpC/zrJTG51nQOvK8Otq6Ge7+dBkYdOCmRfIN+Pqwy2sE2C42m72sLWaeL2fl+ZLmGM0syEu39PILCtB5V1RdoAfWxUk3z8io4yAzKkuM0fOvO2OFDpja1YiyhvvDEoPNtKXheygIrud9Dn21YVc4FxXthfO9hNnoRKZ6C9WkS2aF5TiG6vIh5qZr8bkFkp7sJF2umjNW45hAVKYTCY1E61bvhUVNlUTTjM850ZvTwtbPqkys3s0OtPqNlp/rU/YHaY3hJB8n2vX0ZjWDezYL07qMkPXGKqUU4SCulHkyboQcUuEeSNakGQhuqeVTCg765nlQfIM+y7GqXeCgnGCxAON9BdDAp672k6GyyMh6Xp4lP23VnKtPQ9NzwtOhU//blDMMVNWDKsLF37Sjqoop24BnFs2J3cY2VxCfL8G+69+9v/LnxVSgRWRZzWjk1Re7Oa31DJOCrNz+v/ow8704UsD5CuHuFYUQFfQFzpyXFTKh+mnWqnLKkjnyKnJb/rtJwpmtC/lM3342QHy0Va+dCJrZJKbRbqynTYm66Xj8iPN3CXl1Ok+tDSfo2DHOahlGBLu1QF8d5j+w5AUQ2ENBT7bmGFKF4Pm6Svt6pkr7LTifa1U3bgwb8CTYSU4zXjmIHe+naWHgi0C+E01ZFnODlAzRs686aYUpiyoHhOeasZXh8jv+VFrqtwhYsum8yBurqN/2cMdZhRR12OC/nATc1HZVA3g3EW6FiaFjrX9pHSgizg/iATLkcIbaqhX+8QxKePzuwSt6qXD7OPNVHEQdQdKrQVn/MVxdi6fPsENaDbNNWAKg/7UFvZ1GqoFgKnPddL3NFBbapkttczuBuaJNuaDmFCPKWMiqgg0984kyxC6lRiRTN+48nwXe2eYuCqEsvEyrk7Yf5DjqwLE0wf5mJC1kyGjWR/GxN31VEYpPNdO7lnpR63arqsm723h3o3JHTSqeJqHyehm1O4FbPZxum9M+o8u5t4Ivb2W2VrL3FqN/7CR+O0A6l5YOFN0ZNUwcUnrZtSvx+VX+8W9LexNdrOFVSXYEh/64zb1z4ciwJ1uJ7fWUk+1s78fEiOEE1yS+XZ5gFHf6aXXV5Lf8RHf8RF7mpnA2NzniVn8k2H3IKO8OcCdESD/3k+sLCV3h1Hzz3ndjVZRFKOd1j6KCc+0Uf9chV0ZwlcHpk9q+uzshw/xdWX4zTXE403EgX62clIeFQ27Nc28g2Sw1tmV6vBZFCCWleDFpcQ7UX5c1OZ1ulOo9dMYf1eY+Ac/8Vc+orgC9STq44zMrLOaMOsF1GR9VL4kRC4vwVcEiA3l5Meoo1DmheyZn0Th07z+WCf/3RLyb33E2hC5r4M7Imat5jLzs4RstJHKH49KP+vm7o3QN1YRFwTtS8s3ywvLSvBLQsT2GvKRJvq1HjY4LkU5TdBNw7ImZPOXfcKVNfRf+4jv+ogn2rnquGrn8025RrfMAU57tIW9qJz6Ox9xRgnx5EG+m0GtL2ZaMu82r5kdhPxsO3lVJfE3PoR9ewP7yREZR7kL6V8JDdXv0ltJ9Y/D4otd7P0RelMVdW6QcKZTx3537MtsqR9fE8CvriB3h+nnO5nPh8VOBi06L6Dg3mmJZFIwrJoJ8eOYsH9A3j8gvxuTfWPyiKCl19FMN9yJWVFNa1I2myn9g2H58XZUX2uVnc+UQ8hXoZhY4v4WLoLPvVV2Rkkkk5hivXRIuLYyVwunVLmtFUHijgbm1T6hdFIZ4PTpNft53YZu4ihFb8OlT4akNw5LvxqQ3u7jvh7mh1jl+LLu0O+X3URQ//Oosr9ffLqTe7CZuT3C7IygitY76umdEfb2CL2nBZXy/82AUDYuj4v6zNCZdOBxSa8b5x/t4K4Nsxvr6QNRoSfvB8PpRyMVIzChfL+ZvaGBvbOF/81hKTbdNyb9zbP3IG4jvFo9JrzTxzzbyTzYzOyKMDfX01vr6C31zPZ6eleYviNCP93BvtnP+Ya5AVoRtQLiEGcPd+wnK5nsYvUXDvF3NzK3N9CPt9K12LEShMfel2Wrk5TfHmC3NDAb6+k97Vw9oZHHleaVlAyrhdSeaGdva2B2hukn29ma/Mqr6Baq1fbOkLSridsUZve2858Oy/ScAPEsZ2FPPy1SMSK4+tGQ9Ite4bE2dC3d0sBuC7Nb65ntYfbWBubOJnZfJ7e/X/hyWOohZUY91jyH1a2KuLqvS9hkv/P9IemIMEeFE7iClq33tvPXhdnbmtj3h2VMyR04ldlcVjMrxoSfdrHX1jPXhNnne8VGUsvdtw8lCMpGBFM+QZU9hQdaud2N7M4GZkeY3VbPbKlnttVRN4eZ3Y3snhb2hW7+vUGxYVKKSwsJkneMnlWky562WIVOXlBgICo2ozzSzK0NUWf4UC7znPlsuiY6UnhHhAmOiqlSrDNBWsnkmGL+qINDD33tZa/c/ztT5lUB7JpK4te93EFqIZlh9nPLeYKYZhqZ/7ZmWoyqj4talNO6GL1xkm+aFLpZFIw9IencVGpKPsdDGjTA6U240hYXGMXxfT4fzPweSUddB9pJrZdFVfrm/dOR8Sisqo/yaj+jRiaE0KgQmFDrJ8UuQhzmNQEtamX8+5/xSHnt1K0Ep1udhNQ8KYzzGWpf5zyKxWt6Jya0xYUBSs4ZEZnzMDNeVAxUnr5uUiofE8d4RUSnnM8XciWrGUO83kxoQ7wuFpA9cuz4Tqk3UjEOs1oLqVXG1dIJtR5TO0l1kFMp1Ekxg1edT8UEowlXe2iVmqGSqUM7BbiiHDJvkNMKnyGljoQ2JgStNS42EupoYWWfUODHuKgNsmhNvAlXK+NqcFwOjfCNmNzLGiOiYXcYPt5f2zlS6EwUMoCbdU72D8iNyWRMMP50VPnXg/yuML0uhPLbUi07civXYkghWoH1xy8MYJsqiYeaaRSiSWoUSofJH1MBBNKZ5NiDZmcmioQSdIvVLVoxaAUFnYi6pRgoEC/vx/bIQkFHq/MMqryd/6llts6O+rQYDWUKOief+X0599qnZvK6SSkGJhtxxSQVg1MNSbdyR//mPGrWF53lVFY1acWQCy4li5b1WNVgFENAs+q8rvasptgvmBaKKyYVE5eRPXnLK+KtWwkRxcdZoh2pvgB7HK9pJrq0aM3CVQtTTFK1WM0UdRR+m/HScj7lDM1PNeOe6/9EArGyLzZ0oS5g1jmTmx1qatCqZS/0zx1r5jtnbyP7FcMSdRQpSasWrqBoXFxGUbq8jn6nbOD5H3D24ad/mimF0/vm+Y6GlAxrVDIbKf29IRTU48yIC+pEfMKlMKW8zpR5bRDfXEW+2CN8Pa70shqtnpjmOPOwgZeBABD4dhJYmBRaR0T9s6Py7gbmgjJiAaW9UGkg+1nhCZwgp6TQ2XCqh53uIzZWUS90ss2Ek/Hz7fQSWA0EgMAiEyhMCgXdHGC192PSEx389bX0pWU4KgoyOyF0jiRl+3GxpTBVU7Y4iF9eQeyMMD8/xAVHeLyQiJtFhg+HBwJAwCsE8pJCw0oImjnIaeUT8usD/O0N9LoQ6eT6ZVO6efcvthSmDCiajm2+torY10J8flRqp3VMMe20vRPwnMgrngQ7gAAQOA4CeUmhqBuHaflXXeTO6qkkh/So6ZT05LnhmhSm7FmBMh+wC8vwvS1MaFKlUN2tE7yyeRyOgI8CASBwMgnMI4WGlZiQzf8ekR9qpjdV4hcGUYKL0w8hJTEL23BfCp0pc3FJfEM5cXOYfbFHKJ1QpILXH0+mt2BsIAAEFolALik0rASpml+NKT9q54oD+PJMZS8XpoMuLJvkMGylH1vqxzdWUc+jwsWqHZQEM+VFusDgsEDg20EglxSKutVBabvC9NpAXkHOOdQn/SX37wpn2uDEY2+sIl/pEY6gcvkwU/52XK9gJRBYJAK5pHBIMD4Yki+volf4C5BCp07JmgB+YSl+cSmWrTTsiZLCf/LHrwrhF6OYHpTPm6MuwBwpPNcXLy7Fr69nGkit4IoTi+QNOCwQAAIniUA2KURx1B209lI3f36IXOqbKro5U03mbKeCV9YGUSGg+5uYuyPMpkpybQAVRJvz5hM1QV7lj59Xgu1poh9pQZmJF5YRRXZwT+5CHSljVvixohBVMqnYc+ST5AEYFggAAQ8QyCGFVh2mPN7MFAdRO4WUfGTbSIU0b65l9veJhxjtmzH5ngjqr5Tx4yfkrnCZH1seJD8bljpJtWJSfaCJvaCMSC9jk83m5fbHvxyRiLQKqR5wDZgABICAewRySGGildSeO8ivLZvnrnC1P77Ej59fRu6sp1/u4f3jSpRHzd5KUWOaRZfCZUHyw0E+xqq4YrbR+sdDwjOt5MYKVBpn3kRAVBU9iP8vakFdcHUz91wEIwEBILD4BLJJIRp5kDfei8nrKmlUFCytNsx5dlTNGrvY9Y46al8H++ERqYvW7B4uqFZDaNIlKfx9lBvhVYfVpKjXTYi/6OHujVBXlWNrAqie/sq02paO8ecHsa01ZC2OQmoWHzWMAASAgHcJ5JJCTrcaKP3qOuYcu+XjHDV0GiKvCeI76qhPo+wALc8oAHPSpDCZTFqJBCVrwRHu6Sb8onLyzJIMU2ZnBfnqCuLnB9kYf7x1rrzrXrAMCACB/AjkkkLdSsQV86Nh+b5mFnXh8E01J1nqQ41K14eIH7SwB6JSmNRGBF2Yag3vBOidTClMJFAh3Likd1HqF6PKM13i9TWM03bSaZKAuj34sSsryGcOcu2ks2YCcYX5XS/wLiDwF0oglxQmk0lUo180/jAiP9DK3Rqmb6yhNlUvnLUeAAAFWklEQVSj7lP3NjLPd/PfjClRwchUMO9kSmHKU+j2ULXChH4gKv+wjd0Vpm+w7d9SS90ZYV7uFcomUcu9eQvBpw4IG0AACPylEphHCp3T5jSzj1E/H5Z/3S/++yHh7ahUPqli8pzy3zMReUIKpw1KGJZ5iNG/PKrs70X2vzkglU5oqMnZ9DvgOxAAAqc4gbykULfbUY9J5qBg9HPGkGDiiqmaOfoleksKrQSq/z4umVEe2R8TDEyx8m9fdYpfInD6QOBUIJCXFBYOwlNSWLj58AkgAAROMQIghaeYw+F0gQAQyEQApDATFdgHBIDAKUYApPAUczicLhAAApkIgBRmogL7gAAQOMUILKIUhgn1yTZ2XShXOYb7m9kGTKXVDGEtiWQyrljPdgtXVJDZsomX++JFAfzTIWES1RyELyAABIDAAgksnhQmehj1133cFZXkOWk1vlb54iv98aIA8VQnH+V0EYVpZ/iiNeu9mLwzzHzPh/rqzcz8c5KIV5dgl5cTwQnZTnzOcATYBQSAABDIh8AiSSEaGhO1kqP85hpqSVo1hxW++FI/tr6cfK1f4DXDbm6fwVrJSEQI/cedwul+osg/q2aik0R8URl+V5juYiCJOAM92AUEgED+BBZRClXDPMKrb/TzO+oop8R0KgV4hR/bUE681MVEcNmwsoZqm1aCUs0vhsU76vDiIH72dBL0Eh92th9fE8T/pZUJTSgkKrEFScT5Ox3eCQSAwFwCiyiFyWRCMc0uSn0rKt7dxGyrpa6tIq+qJLfUUPc1Mi92c/VxiZJzP+NDxbQPs+pnMfaJNuaWempjFXlNJbG5mrolzDzZwf7PqMxqZrabyrnnCj8DASAABLIQWFQpnBqTUc1OUvkwJr58iP9Zl/DbqFQTV0hJ08zMjwjTTE2Ylhml5a+GhVd6hJe6uDf7+D8flYYFTYE6g2mwYAcQAAILIOCGFGpmglHNI4LRy+qHWGNQMFAKs5F1Xpx2GolEIiFo5pho9HFGD6tHOX1MMkTDMi2YF6fRgh1AAAgUTsANKSzcKvgEEAACQMBVAiCFruKGwYAAEPAmAZBCb/oFrAICQMBVAiCFruKGwYAAEPAmAZBCb/oFrAICQMBVAiCFruKGwYAAEPAmAZBCb/oFrAICQMBVAiCFruKGwYAAEPAmAZBCb/oFrAICQMBVAiCFruKGwYAAEPAmAZBCb/oFrAICQMBVAiCFruKGwYAAEPAmAZBCb/oFrAICQMBVAiCFruKGwYAAEPAmAZBCb/oFrAICQMBVAiCFruKGwYAAEPAmAZBCb/oFrAICQMBVAiCFruKGwYAAEPAmAZBCb/oFrAICQMBVAiCFruKGwYAAEPAmAZBCb/oFrAICQMBVAiCFruKGwYAAEPAmAZBCb/oFrAICQMBVAiCFruKGwYAAEPAmAZBCb/oFrAICQMBVAiCFruKGwYAAEPAmAZBCb/oFrAICQMBVAiCFruKGwYAAEPAmAZBCb/oFrAICQMBVAiCFruKGwYAAEPAmAZBCb/oFrAICQMBVAiCFruKGwYAAEPAmAZBCb/oFrAICQMBVAiCFruKGwYAAEPAmAZBCb/oFrAICQMBVAiCFruKGwYAAEPAmAZBCb/oFrAICQMBVAiCFruKGwYAAEPAmAZBCb/oFrAICQMBVAiCFruKGwYAAEPAmAZBCb/oFrAICQMBVAiCFruKGwYAAEPAmAZBCb/oFrAICQMBVAiCFruKGwYAAEPAmAZBCb/oFrAICQMBVAiCFruKGwYAAEPAmAZBCb/oFrAICQMBVAiCFruKGwYAAEPAmAZBCb/oFrAICQMBVAv8HD17sJwgY5esAAAAASUVORK5CYII=;" vertex="1" parent="1">
          <mxGeometry x="937" y="17" width="216.56" height="113" as="geometry" />
        </mxCell>
        <mxCell id="DjG8kCXdjbpDMHFH3Mug-3" value="&lt;h2&gt;MARKETING TEAM&lt;/h2&gt;" style="text;html=1;align=center;verticalAlign=middle;whiteSpace=wrap;rounded=0;" vertex="1" parent="1">
          <mxGeometry x="1403" y="101.84" width="163" height="90" as="geometry" />
        </mxCell>
        <mxCell id="DjG8kCXdjbpDMHFH3Mug-5" value="" style="image;aspect=fixed;html=1;points=[];align=center;fontSize=12;image=img/lib/azure2/identity/Users.svg;" vertex="1" parent="1">
          <mxGeometry x="1441" y="26" width="73" height="79.84" as="geometry" />
        </mxCell>
        <mxCell id="DjG8kCXdjbpDMHFH3Mug-6" style="edgeStyle=orthogonalEdgeStyle;rounded=0;orthogonalLoop=1;jettySize=auto;html=1;entryX=0.603;entryY=0.795;entryDx=0;entryDy=0;entryPerimeter=0;" edge="1" parent="1" source="DjG8kCXdjbpDMHFH3Mug-2" target="DjG8kCXdjbpDMHFH3Mug-5">
          <mxGeometry relative="1" as="geometry" />
        </mxCell>
      </root>
    </mxGraphModel>
  </diagram>
</mxfile>
